<svg width="48" height="48" viewBox="0 0 48 48" fill="none" xmlns="http://www.w3.org/2000/svg">
<path d="M28.7 4H19.3C17.22 4 15.52 5.68 15.52 7.76V9.64C15.52 11.72 17.2 13.4 19.28 13.4H28.7C30.78 13.4 32.46 11.72 32.46 9.64V7.76C32.48 5.68 30.78 4 28.7 4Z" fill="#CF4307"/>
<path d="M34.4801 9.63996C34.4801 12.82 31.8801 15.42 28.7001 15.42H19.3001C16.1201 15.42 13.5201 12.82 13.5201 9.63996C13.5201 8.51996 12.3201 7.81996 11.3201 8.33996C8.50008 9.83996 6.58008 12.82 6.58008 16.24V35.06C6.58008 39.98 10.6001 44 15.5201 44H32.4801C37.4001 44 41.4201 39.98 41.4201 35.06V16.24C41.4201 12.82 39.5001 9.83996 36.6801 8.33996C35.6801 7.81996 34.4801 8.51996 34.4801 9.63996ZM24.7601 33.9H16.0001C15.1801 33.9 14.5001 33.22 14.5001 32.4C14.5001 31.58 15.1801 30.9 16.0001 30.9H24.7601C25.5801 30.9 26.2601 31.58 26.2601 32.4C26.2601 33.22 25.5801 33.9 24.7601 33.9ZM30.0001 25.9H16.0001C15.1801 25.9 14.5001 25.22 14.5001 24.4C14.5001 23.58 15.1801 22.9 16.0001 22.9H30.0001C30.8201 22.9 31.5001 23.58 31.5001 24.4C31.5001 25.22 30.8201 25.9 30.0001 25.9Z" fill="#CF4307"/>
</svg>
