<svg width="48" height="48" viewBox="0 0 48 48" fill="none" xmlns="http://www.w3.org/2000/svg">
<path d="M35.04 7.55994C32.8 6.31994 29.94 6.63994 27.02 8.45994L21.18 12.1199C20.78 12.3599 20.32 12.4999 19.86 12.4999H18H17C12.16 12.4999 9.5 15.1599 9.5 19.9999V27.9999C9.5 32.8399 12.16 35.4999 17 35.4999H18H19.86C20.32 35.4999 20.78 35.6399 21.18 35.8799L27.02 39.5399C28.78 40.6399 30.5 41.1799 32.1 41.1799C33.14 41.1799 34.14 40.9399 35.04 40.4399C37.26 39.1999 38.5 36.6199 38.5 33.1799V14.8199C38.5 11.3799 37.26 8.79994 35.04 7.55994Z" fill="#CF4307"/>
</svg>
