<svg width="67" height="12" viewBox="0 0 67 12" fill="none" xmlns="http://www.w3.org/2000/svg">
<g clip-path="url(#clip0_262_1144)">
<path d="M46.0891 11.7502C45.3498 11.8245 44.6042 11.6952 43.9331 11.3762C43.4814 11.138 43.1122 10.7689 42.8741 10.3172C42.5547 9.6462 42.4254 8.90051 42.5001 8.16117V3.83917C42.4254 3.09983 42.5547 2.35414 42.8741 1.68317C43.1122 1.23146 43.4814 0.862306 43.9331 0.624169C44.6041 0.304779 45.3498 0.175426 46.0891 0.250169H60.9101C61.6498 0.175292 62.3958 0.304647 63.0671 0.624169C63.5183 0.862203 63.8871 1.23097 64.1251 1.68217C64.4443 2.35358 64.574 3.09943 64.5001 3.83917V8.16117C64.5741 8.90048 64.4448 9.64596 64.1261 10.3172C63.8881 10.7684 63.5193 11.1371 63.0681 11.3752C62.3967 11.6942 61.6508 11.8235 60.9111 11.7492L46.0891 11.7502ZM44.4001 1.50617C44.1226 1.65125 43.8962 1.87771 43.7511 2.15517C43.5226 2.68517 43.4361 3.26556 43.5001 3.83917V8.16117C43.4368 8.73686 43.525 9.31911 43.7561 9.85017C43.9007 10.1277 44.1273 10.354 44.4051 10.4982C44.9347 10.7295 45.5156 10.8181 46.0901 10.7552H60.9101C61.4849 10.8182 62.0662 10.7296 62.5961 10.4982C62.8726 10.3526 63.0986 10.1267 63.2441 9.85017C63.4752 9.31911 63.5635 8.73686 63.5001 8.16117V3.83917C63.5635 3.26348 63.4752 2.68123 63.2441 2.15017C63.0986 1.87335 62.8727 1.64708 62.5961 1.50117C62.0655 1.27237 61.4844 1.18586 60.9101 1.25017H46.0891C45.5134 1.18681 44.9312 1.27506 44.4001 1.50617V1.50617ZM65.5001 3.94017C65.5001 3.94017 67.0001 4.70317 67.0001 5.94017C67.0001 7.17717 65.5001 7.94017 65.5001 7.94017V3.94017Z" fill="black" fill-opacity="0.36"/>
<path d="M60.9 2.16699H46.1C45.2163 2.16699 44.5 2.88334 44.5 3.76699V8.23399C44.5 9.11765 45.2163 9.83399 46.1 9.83399H60.9C61.7837 9.83399 62.5 9.11765 62.5 8.23399V3.76699C62.5 2.88334 61.7837 2.16699 60.9 2.16699Z" fill="#4DBCA6"/>
<path d="M15.3 11.3904C14.9817 11.3904 14.6765 11.264 14.4515 11.039C14.2264 10.8139 14.1 10.5087 14.1 10.1904V1.89043C14.1 1.57217 14.2264 1.26695 14.4515 1.0419C14.6765 0.816858 14.9817 0.69043 15.3 0.69043H15.9C16.2183 0.69043 16.5235 0.816858 16.7485 1.0419C16.9736 1.26695 17.1 1.57217 17.1 1.89043V10.1904C17.1 10.5087 16.9736 10.8139 16.7485 11.039C16.5235 11.264 16.2183 11.3904 15.9 11.3904H15.3ZM10.6 11.3904C10.2817 11.3904 9.97652 11.264 9.75147 11.039C9.52643 10.8139 9.4 10.5087 9.4 10.1904V4.29043C9.4 3.97217 9.52643 3.66695 9.75147 3.4419C9.97652 3.21686 10.2817 3.09043 10.6 3.09043H11.2C11.5183 3.09043 11.8235 3.21686 12.0485 3.4419C12.2736 3.66695 12.4 3.97217 12.4 4.29043V10.1904C12.4 10.5087 12.2736 10.8139 12.0485 11.039C11.8235 11.264 11.5183 11.3904 11.2 11.3904H10.6ZM6 11.3904C5.68174 11.3904 5.37652 11.264 5.15147 11.039C4.92643 10.8139 4.8 10.5087 4.8 10.1904V6.59043C4.8 6.27217 4.92643 5.96695 5.15147 5.7419C5.37652 5.51686 5.68174 5.39043 6 5.39043H6.6C6.91826 5.39043 7.22348 5.51686 7.44853 5.7419C7.67357 5.96695 7.8 6.27217 7.8 6.59043V10.1904C7.8 10.5087 7.67357 10.8139 7.44853 11.039C7.22348 11.264 6.91826 11.3904 6.6 11.3904H6ZM1.2 11.3904C0.88174 11.3904 0.576516 11.264 0.351472 11.039C0.126428 10.8139 0 10.5087 0 10.1904L0 8.59043C0 8.27217 0.126428 7.96695 0.351472 7.7419C0.576516 7.51686 0.88174 7.39043 1.2 7.39043H1.8C2.11826 7.39043 2.42348 7.51686 2.64853 7.7419C2.87357 7.96695 3 8.27217 3 8.59043V10.1904C3 10.5087 2.87357 10.8139 2.64853 11.039C2.42348 11.264 2.11826 11.3904 1.8 11.3904H1.2Z" fill="#130E01"/>
<path d="M29.8 11.547C29.7585 11.5468 29.7174 11.5384 29.6791 11.5222C29.6409 11.5061 29.6062 11.4826 29.577 11.453L27.562 9.42197C27.5313 9.39167 27.507 9.3554 27.4908 9.31539C27.4746 9.27538 27.4667 9.23248 27.4676 9.18932C27.4685 9.14615 27.4783 9.10363 27.4962 9.06437C27.5142 9.0251 27.54 8.98992 27.572 8.96097C28.195 8.43407 28.9846 8.14497 29.8005 8.14497C30.6165 8.14497 31.406 8.43407 32.029 8.96097C32.0604 8.99008 32.0855 9.02534 32.1027 9.06457C32.1199 9.10379 32.1289 9.14614 32.129 9.18897C32.1298 9.23222 32.1218 9.27518 32.1055 9.31523C32.0891 9.35529 32.0648 9.39161 32.034 9.42197L30.024 11.454C29.9947 11.4835 29.9598 11.5069 29.9213 11.5229C29.8829 11.5389 29.8416 11.547 29.8 11.547V11.547ZM33.337 7.97997C33.2569 7.98047 33.1797 7.9496 33.122 7.89397C32.2125 7.06978 31.0289 6.6133 29.8015 6.6133C28.5741 6.6133 27.3905 7.06978 26.481 7.89397C26.4223 7.95061 26.3437 7.98192 26.2622 7.98117C26.1806 7.98043 26.1026 7.94767 26.045 7.88997L24.88 6.71197C24.8493 6.68173 24.825 6.6457 24.8083 6.60595C24.7917 6.56621 24.7831 6.52356 24.7831 6.48047C24.7831 6.43739 24.7917 6.39474 24.8083 6.35499C24.825 6.31525 24.8493 6.27921 24.88 6.24897C26.2159 5.00654 27.9727 4.31589 29.797 4.31589C31.6214 4.31589 33.3781 5.00654 34.714 6.24897C34.7447 6.27921 34.7691 6.31525 34.7857 6.35499C34.8023 6.39474 34.8109 6.43739 34.8109 6.48047C34.8109 6.52356 34.8023 6.56621 34.7857 6.60595C34.7691 6.6457 34.7447 6.68173 34.714 6.71197L33.559 7.88997C33.5298 7.91904 33.4952 7.94205 33.4571 7.95767C33.419 7.97328 33.3782 7.98121 33.337 7.98097V7.97997ZM36.02 5.27297C35.939 5.27314 35.8611 5.24155 35.803 5.18497C34.1834 3.64573 32.0344 2.78744 29.8 2.78744C27.5656 2.78744 25.4166 3.64573 23.797 5.18497C23.7387 5.2417 23.6604 5.27329 23.579 5.27297C23.5381 5.27314 23.4975 5.26509 23.4597 5.24928C23.4219 5.23348 23.3877 5.21025 23.359 5.18097L22.194 4.00497C22.1638 3.97479 22.1398 3.93893 22.1234 3.89947C22.1071 3.86 22.0986 3.8177 22.0986 3.77497C22.0986 3.73225 22.1071 3.68994 22.1234 3.65048C22.1398 3.61101 22.1638 3.57516 22.194 3.54497C24.2398 1.58464 26.9636 0.490234 29.797 0.490234C32.6304 0.490234 35.3543 1.58464 37.4 3.54497C37.4304 3.57509 37.4545 3.61092 37.4709 3.6504C37.4873 3.68987 37.4958 3.73221 37.4958 3.77497C37.4958 3.81773 37.4873 3.86007 37.4709 3.89955C37.4545 3.93902 37.4304 3.97485 37.4 4.00497L36.24 5.18097C36.2114 5.21025 36.1771 5.23348 36.1393 5.24928C36.1016 5.26509 36.061 5.27314 36.02 5.27297V5.27297Z" fill="#130E01"/>
</g>
<defs>
<clipPath id="clip0_262_1144">
<rect width="67" height="11.5" fill="white" transform="translate(0 0.25)"/>
</clipPath>
</defs>
</svg>
