<svg width="48" height="48" viewBox="0 0 48 48" fill="none" xmlns="http://www.w3.org/2000/svg">
<g clip-path="url(#clip0_257_167)">
<path d="M18 4C12.76 4 8.5 8.26 8.5 13.5C8.5 18.64 12.52 22.8 17.76 22.98C17.92 22.96 18.08 22.96 18.2 22.98C18.24 22.98 18.26 22.98 18.3 22.98C18.32 22.98 18.32 22.98 18.34 22.98C23.46 22.8 27.48 18.64 27.5 13.5C27.5 8.26 23.24 4 18 4Z" fill="#CF4307"/>
<path d="M28.1599 28.2998C22.5799 24.5798 13.4799 24.5798 7.85992 28.2998C5.31992 29.9998 3.91992 32.2998 3.91992 34.7598C3.91992 37.2198 5.31992 39.4998 7.83992 41.1798C10.6399 43.0598 14.3199 43.9998 17.9999 43.9998C21.6799 43.9998 25.3599 43.0598 28.1599 41.1798C30.6799 39.4798 32.0799 37.1998 32.0799 34.7198C32.0599 32.2598 30.6799 29.9798 28.1599 28.2998Z" fill="#CF4307"/>
<path d="M39.9802 14.6802C40.3002 18.5602 37.5402 21.9602 33.7202 22.4202C33.7002 22.4202 33.7002 22.4202 33.6802 22.4202H33.6202C33.5002 22.4202 33.3802 22.4202 33.2802 22.4602C31.3402 22.5602 29.5602 21.9402 28.2202 20.8002C30.2802 18.9602 31.4602 16.2002 31.2202 13.2002C31.0802 11.5802 30.5202 10.1002 29.6802 8.8402C30.4402 8.4602 31.3202 8.2202 32.2202 8.1402C36.1402 7.8002 39.6402 10.7202 39.9802 14.6802Z" fill="#CF4307"/>
<path d="M43.98 33.1798C43.82 35.1198 42.58 36.7998 40.5 37.9398C38.5 39.0398 35.98 39.5598 33.48 39.4998C34.92 38.1998 35.76 36.5798 35.92 34.8598C36.12 32.3798 34.94 29.9998 32.58 28.0998C31.24 27.0398 29.68 26.1998 27.98 25.5798C32.4 24.2998 37.96 25.1598 41.38 27.9198C43.22 29.3998 44.16 31.2598 43.98 33.1798Z" fill="#CF4307"/>
</g>
<defs>
<clipPath id="clip0_257_167">
<rect width="48" height="48" fill="white"/>
</clipPath>
</defs>
</svg>
