<svg width="48" height="48" viewBox="0 0 48 48" fill="none" xmlns="http://www.w3.org/2000/svg">
<path d="M35.0601 15.54C34.9201 15.52 34.7801 15.52 34.6401 15.54C31.5401 15.44 29.0801 12.9 29.0801 9.78C29.0801 6.6 31.6601 4 34.8601 4C38.0401 4 40.6401 6.58 40.6401 9.78C40.6201 12.9 38.1601 15.44 35.0601 15.54Z" fill="#CF4307"/>
<path d="M41.5802 29.3998C39.3402 30.8998 36.2002 31.4598 33.3002 31.0798C34.0602 29.4398 34.4602 27.6198 34.4802 25.6998C34.4802 23.6998 34.0402 21.7998 33.2002 20.1398C36.1602 19.7398 39.3002 20.2998 41.5602 21.7998C44.7202 23.8798 44.7202 27.2998 41.5802 29.3998Z" fill="#CF4307"/>
<path d="M12.8798 15.54C13.0198 15.52 13.1598 15.52 13.2998 15.54C16.3998 15.44 18.8598 12.9 18.8598 9.78C18.8598 6.58 16.2798 4 13.0798 4C9.89982 4 7.31982 6.58 7.31982 9.78C7.31982 12.9 9.77982 15.44 12.8798 15.54Z" fill="#CF4307"/>
<path d="M13.1002 25.7002C13.1002 27.6402 13.5202 29.4802 14.2802 31.1402C11.4602 31.4402 8.52023 30.8402 6.36023 29.4202C3.20023 27.3202 3.20023 23.9002 6.36023 21.8002C8.50023 20.3602 11.5202 19.7802 14.3602 20.1002C13.5402 21.7802 13.1002 23.6802 13.1002 25.7002Z" fill="#CF4307"/>
<path d="M24.2401 31.74C24.0801 31.72 23.9001 31.72 23.7201 31.74C20.0401 31.62 17.1001 28.6 17.1001 24.88C17.1201 21.08 20.1801 18 24.0001 18C27.8001 18 30.8801 21.08 30.8801 24.88C30.8601 28.6 27.9401 31.62 24.2401 31.74Z" fill="#CF4307"/>
<path d="M17.7401 35.8798C14.7201 37.8998 14.7201 41.2198 17.7401 43.2198C21.1801 45.5198 26.8201 45.5198 30.2601 43.2198C33.2801 41.1998 33.2801 37.8798 30.2601 35.8798C26.8401 33.5798 21.2001 33.5798 17.7401 35.8798Z" fill="#CF4307"/>
</svg>
