<svg width="48" height="48" viewBox="0 0 48 48" fill="none" xmlns="http://www.w3.org/2000/svg">
<circle cx="24" cy="24" r="24" fill="#4DBCA6"/>
<path d="M24.32 30.24C23.296 30.24 22.376 30.072 21.56 29.736C20.744 29.384 20.048 28.904 19.472 28.296C18.896 27.672 18.448 26.968 18.128 26.184C17.824 25.4 17.672 24.576 17.672 23.712C17.672 22.528 17.936 21.448 18.464 20.472C19.008 19.48 19.776 18.688 20.768 18.096C21.76 17.504 22.936 17.208 24.296 17.208C25.656 17.208 26.824 17.504 27.8 18.096C28.776 18.688 29.504 19.464 29.984 20.424L26.84 21.384C26.568 20.92 26.208 20.568 25.76 20.328C25.312 20.072 24.816 19.944 24.272 19.944C23.664 19.944 23.104 20.104 22.592 20.424C22.096 20.728 21.704 21.168 21.416 21.744C21.128 22.304 20.984 22.96 20.984 23.712C20.984 24.448 21.128 25.104 21.416 25.68C21.72 26.24 22.12 26.688 22.616 27.024C23.112 27.344 23.664 27.504 24.272 27.504C24.656 27.504 25.016 27.44 25.352 27.312C25.704 27.184 26.016 27.008 26.288 26.784C26.56 26.56 26.76 26.304 26.888 26.016L30.032 26.976C29.744 27.6 29.32 28.16 28.76 28.656C28.216 29.152 27.568 29.544 26.816 29.832C26.08 30.104 25.248 30.24 24.32 30.24Z" fill="white"/>
</svg>
